# xmcd
#
# Track frame offsets:
#  150
#  19887
#  49562
#  73575
#  88250
#  110075
#  126612
#  160900
#  187050
#  203950
#  218600
#
# Disc length: 3143 seconds
#
# Revision: 3
# Processed by: cddbd v1.5.1PL2 Copyright (c) Steve Scherf et al.
# Submitted via: Collectorz.com_Music_Collector 6.9
#
DISCID=a70c450b
DTITLE=Johnny Adams - One Foot In The Blues
DYEAR=1996
DGENRE=Blues
TTITLE0=Won't Pass Me By
TTITLE1=One Foot In The Blues
TTITLE2=Baby Don't You Cry
TTITLE3=Ill Wind
TTITLE4=Roadblock
TTITLE5=Angel Eyes
TTITLE6=Half Awake
TTITLE7=I Wonder Where Our Love Has Gone
TTITLE8=Two Years Of Torture
TTITLE9=Cookin' In Style
TTITLE10=I Know What I've Got
EXTD=
EXTT0=
EXTT1=
EXTT2=
EXTT3=
EXTT4=
EXTT5=
EXTT6=
EXTT7=
EXTT8=
EXTT9=
EXTT10=
PLAYORDER=
